<svg width="600" height="400" viewBox="0 0 600 400" fill="none" xmlns="http://www.w3.org/2000/svg">
  <!-- Background circle -->
  <circle cx="300" cy="200" r="180" fill="#f5f5f5" opacity="0.5"/>
  
  <!-- Laptop -->
  <rect x="150" y="150" width="300" height="200" rx="10" fill="#3B82F6"/>
  <rect x="170" y="170" width="260" height="160" rx="5" fill="white"/>
  
  <!-- Screen content -->
  <!-- Charts -->
  <rect x="190" y="190" width="80" height="100" fill="#F3F4F6"/>
  <rect x="200" y="270" width="20" height="10" fill="#3B82F6"/>
  <rect x="230" y="250" width="20" height="30" fill="#3B82F6"/>
  <rect x="260" y="230" width="20" height="50" fill="#3B82F6"/>
  
  <!-- Pie chart -->
  <circle cx="350" cy="220" r="30" fill="#F3F4F6"/>
  <path d="M350 220 L350 190 A30 30 0 0 1 376 235 Z" fill="#3B82F6"/>
  <path d="M350 220 L376 235 A30 30 0 0 1 324 235 Z" fill="#f28749"/>
  
  <!-- Person -->
  <circle cx="500" cy="250" r="50" fill="#f28749"/>
  <circle cx="500" cy="180" r="30" fill="#f9b08c"/>
  <rect x="470" y="210" width="60" height="80" rx="10" fill="#f28749"/>
  
  <!-- Tablet in hands -->
  <rect x="450" y="300" width="80" height="50" rx="5" fill="#f0f0f0"/>
  
  <!-- Gear icon -->
  <circle cx="400" cy="320" r="25" fill="#6B7280"/>
  <circle cx="400" cy="320" r="15" fill="#F3F4F6"/>
  <path d="M400 295 L405 300 L395 300 Z" fill="#6B7280"/>
  <path d="M400 345 L405 340 L395 340 Z" fill="#6B7280"/>
  <path d="M375 320 L380 325 L380 315 Z" fill="#6B7280"/>
  <path d="M425 320 L420 325 L420 315 Z" fill="#6B7280"/>
  
  <!-- Notification icon -->
  <rect x="450" y="150" width="40" height="30" rx="5" fill="#f28749"/>
  
  <!-- Checkmark icon -->
  <circle cx="350" cy="320" r="20" fill="#f28749"/>
  <path d="M340 320 L350 330 L370 310" stroke="white" stroke-width="4" stroke-linecap="round" stroke-linejoin="round"/>
  
  <!-- Connecting dots and lines -->
  <circle cx="300" cy="350" r="5" fill="#6B7280"/>
  <circle cx="350" cy="370" r="5" fill="#6B7280"/>
  <circle cx="400" cy="350" r="5" fill="#6B7280"/>
  <line x1="300" y1="350" x2="350" y2="370" stroke="#6B7280" stroke-width="2" stroke-dasharray="5 5"/>
  <line x1="350" y1="370" x2="400" y2="350" stroke="#6B7280" stroke-width="2" stroke-dasharray="5 5"/>
  
  <!-- Plant -->
  <rect x="150" y="320" width="30" height="40" rx="2" fill="#f28749"/>
  <path d="M165 320 C165 300 145 290 145 310 C145 320 155 325 165 320" fill="#10B981"/>
  <path d="M165 320 C165 300 185 290 185 310 C185 320 175 325 165 320" fill="#10B981"/>
  <path d="M165 300 C165 280 155 270 155 290 C155 300 160 305 165 300" fill="#10B981"/>
</svg> 